<svg xmlns="http://www.w3.org/2000/svg" version="1.1" xmlns:xlink="http://www.w3.org/1999/xlink" viewBox="0 0 1422 800" style="overflow: hidden; display: block;" width="1422" height="800"><defs></defs><g id="two-0" transform="matrix(1 0 0 1 0 0)" opacity="1"></g><path d="M 46.14607833862305 732.3732299804688 Q 46.14607833862305 732.3732299804688 44.0846237915345 726.2753135681153 42.023169244445945 720.1773971557617 41.294533831547966 709.7077963940517 40.56589841864998 699.2381956323418 41.803525762355484 690.8726116966579 43.04115310606099 682.507027760974 45.92117690049298 673.2891552178266 48.80120069492498 664.0712826746794 53.974320139654125 653.7683529475837 59.147439584383264 643.4654232204879 65.9070481594128 632.8364840119245 72.66665673444231 622.2075448033613 80.15010026247208 611.4208837525307 87.63354379050186 600.6342227017002 96.77109635952274 588.9516949478394 105.90864892854361 577.2691671939787 121.79131738886252 560.1696133539576 137.67398584918143 543.0700595139367 154.5606177109326 527.63096450072 171.4472495726838 512.1918694875031 189.80373624444735 497.4425721695402 208.16022291621087 482.6932748515772 230.00602138402616 468.211528146443 251.8518198518414 453.72978144130883 275.1441478627485 439.7258318969592 298.43647587365564 425.7218823526096 315.53029929104446 416.5672581351091 332.6241227084332 407.4126339176087 354.60805489843074 396.72656417420643 376.5919870884283 386.0404944308042 398.856905189548 376.13307889573707 421.12182329066763 366.2256633606699 443.5034422306311 357.00401010322327 465.88506117059455 347.78235684577663 487.5946505786628 338.8502346867871 509.30423998673103 329.91811252779746 528.9400561806721 322.8978156927018 548.575872374613 315.8775188576061 566.6048573085612 309.31227126488875 584.6338422425094 302.7470236721714 600.907532835586 297.08983588173504 617.1812234286626 291.4326480912987 633.425558651295 286.1607083217939 649.6698938739272 280.8887685522891 659.6685784853378 277.16755811272924 669.6672630967482 273.4463476731694 681.545071660163 270.2883672310609 693.4228802235777 267.1303867889524 705.659447110753 264.0760058288139 717.8960139979282 261.0216248686754 730.2776181339586 257.9608799929195 742.6592222699892 254.90013511716356 755.4717345889615 252.5428308242791 768.2842469079337 250.18552653139463 780.1706991684557 248.35649953287248 792.0571514289778 246.52747253435035 803.1809781707987 244.82240852391618 814.3048049126195 243.117344513482 825.1659676120263 242.22117729490145 836.0271303114331 241.32501007632086 846.3901257893037 240.74812725456184 856.7531212671745 240.17124443280278 865.8224232509876 239.59353655921467 874.8917252348008 239.01582868562653 884.2840912594534 239.34933588347522 893.6764572841059 239.6828430813239 902.5704217883508 241.08917615862913 911.4643862925956 242.49550923593435 920.2082737841782 244.0433712410507 928.9521612757609 245.591233246167 937.9090124680545 248.0317554464365 946.8658636603482 250.472277646706 955.305962585868 252.80774806477365 963.7460615113878 255.1432184828413 972.4391666235958 257.9324449870446 981.132271735804 260.72167149124795 990.3642031183701 263.3871474637373 999.5961345009364 266.0526234362266 1009.0241887966617 269.0518886999066 1018.4522430923871 272.05115396358667 1027.4305759573022 274.6753609864637 1036.4089088222174 277.29956800934076 1048.4888423693244 280.64881166350636 1060.5687759164314 283.99805531767197 1071.1971759207913 288.2966193576068 1081.8255759251513 292.5951833975417 1089.481664035745 297.2285596566935 1097.137752146339 301.8619359158454 1101.81904939982 307.4476800741105 1106.500346653301 313.0334242323757 1108.6870639990386 321.88983567603015 1110.8737813447763 330.7462471196846 1110.8093297265 331.0113647110655 1110.7448781082237 331.27648230244637 1110.0387003684002 332.590165906306 1109.3325226285767 333.9038495101657 1108.3324715545323 335.0103527684412 1107.3324204804878 336.11685602671673 1106.096619087633 336.9518689180483 1104.8608176947782 337.7868818093799 1103.4610908181296 338.30187334529046 1102.061363941481 338.816864881201 1100.5790637728755 338.9819037294267 1099.0967636042699 339.1469425776523 1097.6180414991522 338.9524366725798 1096.1393193940344 338.7579307675073 1094.7501187506314 338.2151848014783 1093.3609181072286 337.6724388354493 1092.1419793322063 336.8129972295103 1090.923040557184 335.9535556235712 1089.9452084294185 334.82736916423994 1088.9673763016526 333.70118270490866 1088.2874824703526 332.3737054021152 1087.6075886390524 331.0462280993217 1087.2651485656377 329.5946129962756 1086.922708492223 328.14299789322945 1086.93762480985 326.6516129279236 1086.952541127477 325.1602279626178 1087.3239468990644 323.7157524993082 1087.6953526706518 322.27127703599865 1094.4456187882074 318.29924650115925 1101.195884905763 314.32721596631984 1110.1457899322818 314.0317881760096 1119.0956949588003 313.7363603856994 1127.8383783830072 313.81332458177496 1136.5810618072142 313.89028877785046 1146.3446292930307 315.81811195222906 1156.1081967788475 317.7459351266076 1165.000041485199 320.62338257396425 1173.8918861915506 323.5008300213209 1182.6891645693372 327.3935547514431 1191.486442947124 331.2862794815653 1201.1309282636867 335.1021054197784 1210.7754135802495 338.9179313579915 1219.7492867108185 342.2329318700295 1228.7231598413873 345.54793238206753 1236.202258237156 347.5906696971161 1243.6813566329245 349.63340701216464 1251.1028160721967 350.8092197692732 1258.5242755114687 351.9850325263819 1264.7491438955226 350.5241495998867 1270.9740122795768 349.0632666733915 1276.7561716586158 342.62965627211145 1282.5383310376549 336.1960458708313 1286.3588391673588 329.2828759594611 1290.1793472970628 322.36970604809085 1297.6989920501137 306.9488510931867 1305.2186368031648 291.5279961382826 1309.6481424099948 281.29221798959793 1314.077648016825 271.05643984091324 1318.9451685544848 259.43268056925353 1323.8126890921446 247.8089212975938 1328.8337100505448 236.04526405025757 1333.854731008945 224.28160680292132 1339.587238824277 211.84011680268756 1345.319746639609 199.3986268024538 1349.7209257729319 190.374521285174 1354.1221049062547 181.35041576789425 1360.1984089720531 171.70811298116672 1366.2747130378518 162.06581019443917 1370.803869935523 155.89799131668286 1375.3330268331943 149.7301724389266 1378.3139306934827 146.20393368381005 1381.2948345537711 142.6776949286935 1381.2990412773904 142.68039742316915 1381.3032480010097 142.68309991764482 1381.307454724629 142.6858024121205 1381.3116614482483 142.68850490659614 1379.3438032431832 146.86554712174393 1377.375945038118 151.04258933689172 1373.7337713841216 157.5943262407896 1370.0915977301254 164.1460631446875 1365.3812692478828 174.30412271673498 1360.67094076564 184.4621822887825 1356.5718631682776 193.33110808414204 1352.4727855709152 202.20003387950158 1348.3327554330726 214.97975952383962 1344.1927252952298 227.75948516817766 1341.1762617888992 239.89179846896076 1338.1597982825685 252.02411176974383 1335.9316953324426 264.5540938038612 1333.7035923823166 277.08407583797856 1331.5654142770773 288.2325639108374 1329.4272361718376 299.3810519836963 1327.4065642018968 311.1591978857781 1325.3858922319557 322.93734378785996 1323.2269774784022 329.4044420883341 1321.0680627248487 335.8715403888083 1315.6233108788404 346.5447433024159 1310.178559032832 357.2179462160235 1304.465859611686 363.83837063282476 1298.7531601905403 370.45879504962596 1291.7980329934628 375.33799651760467 1284.8429057963854 380.2171979855834 1275.0867793245948 382.2010048268578 1265.3306528528042 384.1848116681321 1256.9119897294781 383.1899858503117 1248.493326606152 382.19516003249123 1242.2566331460212 380.4461481474756 1236.0199396858904 378.69713626245994 1227.88992084236 376.0883329092991 1219.7599019988297 373.47952955613823 1209.6381934500237 369.70931956389745 1199.5164849012178 365.9391095716567 1190.025719611273 362.2037670892978 1180.5349543213279 358.4684246069389 1171.6659540317587 354.5140441047978 1162.7969537421898 350.55966360265666 1155.9988605275194 347.9233595757409 1149.200767312849 345.28705554882515 1141.7048963903535 343.2997405794904 1134.2090254678578 341.3124256101557 1126.6345786234288 340.6650064398618 1119.0601317789997 340.017587269568 1109.5619049218235 339.68349078920477 1100.063678064647 339.3493943088415 1105.4045031589421 335.31236204499737 1110.7453282532374 331.2753297811533 1110.0392818853052 332.5890839962184 1109.3332355173727 333.9028382112835 1108.3332950986542 335.0094414691337 1107.3333546799356 336.11604472698394 1106.0976367945486 336.95118119427957 1104.861918909162 337.7863176615752 1103.4622435386655 338.3014491675982 1102.062568168169 338.8165806736213 1100.5802845108597 338.9817677510383 1099.0980008535505 339.1469548284553 1097.619259305236 338.9525967965656 1096.1405177569213 338.7582387646759 1094.7512628458678 338.21563172142476 1093.3620079348143 337.67302467817365 1092.1429832217264 336.81370497040905 1090.9239585086384 335.9543852626445 1089.9460137671163 334.8282965921568 1088.9680690255939 333.70220792166907 1088.288042449963 332.374798614896 1087.6080158743325 331.0473893081229 1087.26543064112 329.5958084563422 1086.9228454079073 328.1442276045614 1086.9376125869635 326.65284115508075 1086.9523797660195 325.1614547056001 1087.3236410882037 323.71694210893577 1087.694902410388 322.27242951227146 1085.5033874436149 319.8612347468621 1083.3118724768417 317.45003998145273 1078.063042159352 312.93421163807307 1072.8142118418625 308.41838329469346 1064.0268949257672 303.3703357292894 1055.239578009672 298.32228816388545 1044.12845765501 293.5157704653015 1033.017337300348 288.70925276671755 1023.9885886130648 285.98104809433164 1014.9598399257818 283.2528434219457 1005.6503347443677 280.4101878424518 996.3408295629536 277.56753226295797 986.80446842578 274.92733970739107 977.2681072886063 272.2871471518242 968.8085628081822 269.344478024181 960.3490183277579 266.40180889653783 952.0619859162936 263.6904523482434 943.7749535048292 260.97909579994894 935.317854239697 258.296761337064 926.8607549745647 255.61442687417917 918.2626855649429 253.54851542468822 909.6646161553211 251.4826039751973 901.3861029382119 249.44995310398957 893.1075897211026 247.41730223278185 884.0381314427528 246.4110921652301 874.9686731644031 245.40488209767832 865.9184712735048 245.0509134637615 856.8682693826065 244.6969448298447 846.5411437260459 244.64650727790053 836.2140180694852 244.59606972595637 825.4005814946327 244.9385972598813 814.5871449197801 245.28112479380627 803.4079917803014 246.4906366716204 792.2288386408226 247.70014854943452 780.3337684152445 249.35293201205963 768.4386981896664 251.0057154746847 755.6787202150576 253.46491187048306 742.9187422404489 255.92410826628142 730.5778472424558 259.1322937721574 718.2369522444629 262.3404792780334 706.0629606510774 265.59649517173466 693.8889690576921 268.852511065436 682.0902797256698 272.10253693555626 670.2915903936475 275.3525628056765 660.0289344549028 278.26898670371367 649.7662785161582 281.18541060175085 633.5288878693996 286.46740092002034 617.291497222641 291.74939123828983 601.0256913709654 297.42096078041516 584.7598855192898 303.0925303225405 566.7374487289128 309.67916299129644 548.7150119385358 316.2657956600524 529.1000032916934 323.31108558161725 509.48499464485093 330.3563755031821 487.79182897028534 339.327693705108 466.0986632957197 348.29901190703384 443.74822452171924 357.5710565001786 421.3977857477188 366.84310109332336 399.178911040132 376.81822456102645 376.96003633254526 386.7933480287295 355.04436972057727 397.56968156562766 333.12870310860933 408.3460151025258 316.13744685409404 417.6190915606403 299.1461905995787 426.8921680187547 275.99840015281166 441.0554975801718 252.85060970604462 455.21882714158886 231.25768196887748 469.87696775390657 209.6647542317103 484.5351083662243 191.6445934723456 499.5261910185526 173.62443271298088 514.5172736708809 157.24705373753 530.2314412285009 140.86967476207914 545.945608786121 125.7481707791653 563.3237884537677 110.62666679625147 580.7019681214146 102.51734130490854 592.7513647399154 94.4080158135656 604.8007613584163 88.31861879902866 616.0938946430597 82.2292217844917 627.3870279277032 77.30877430419994 638.3265127759537 72.3883268239082 649.2659976242043 68.64699319241033 659.3281851918634 64.90565956091247 669.3903727595225 62.002531731320545 677.7063900597325 59.09940390172862 686.0224073599423 56.85763532897218 693.5930346767809 54.61586675621574 701.1636619936196 52.45242709450794 710.6705295746906 50.28898743280015 720.1773971557617 48.2275328857116 726.2753135681153 46.166078338623045 732.3732299804688 46.15607833862305 732.3732299804688 Z" fill="#22c55e"></path><path d="M 76.09663020280858 77.34509690725388 Q 76.09663020280858 77.34509690725388 85.30131424745596 72.67595098505274 94.50599829210333 68.0068050628516 102.79702965137902 64.90172112269025 111.08806101065471 61.79663718252889 119.15415402411865 58.80028170813491 127.2202470375826 55.80392623374093 135.90215800419378 53.6244509938423 144.58406897080494 51.444975753943666 159.88345815809913 49.32708010376305 175.18284734539336 47.209184453582445 202.29089869382824 44.762991330386356 229.39895004226315 42.31679820719026 257.0718855185447 41.10675539745827 284.7448209948262 39.89671258772628 313.3673727550873 39.51721814021165 341.9899245153483 39.137723692697016 372.800947152141 39.07354170571054 403.6119697889338 39.00935971872407 436.07440627115807 39.052142045258414 468.5368427533824 39.09492437179276 501.72341806697415 40.95788603335238 534.9099933805659 42.820847694912 568.7415721052423 46.16090322625699 602.5731508299187 49.50095875760198 625.1949112211698 52.022897941226205 647.8166716124209 54.544837124850424 674.2884185607718 57.788182741212964 700.7601655091228 61.0315283575755 727.0751074037571 64.57617400697787 753.3900492983914 68.12081965638023 778.203871886285 71.78968199578009 803.0176944741785 75.45854433517992 825.395627416983 78.10066693287884 847.7735603597874 80.74278953057775 861.9469612440284 82.22976544656386 876.1203621282693 83.71674136254997 891.1105575030745 85.0699068357543 906.1007528778797 86.42307230895864 921.437115870982 87.35954847027577 936.7734788640843 88.29602463159289 949.7487921870554 89.05482715866836 962.7241055100267 89.81362968574383 975.0527869619215 90.0929281822165 987.3814684138163 90.37222667868917 997.669578139597 90.38186209955091 1007.9576878653777 90.39149752041266 1017.0729601630381 90.7550905951087 1026.1882324606986 91.11868366980475 1038.3166220566334 90.90252233668997 1050.4450116525682 90.68636100357517 1056.9030523921188 91.13243543793504 1063.3610931316693 91.57850987229493 1073.3376333589986 92.00251728865933 1083.3141735863278 92.42652470502374 1090.3333264452322 92.7543473729701 1097.3524793041368 93.08217004091647 1103.738195685341 92.19989471337823 1110.1239120665452 91.31761938584 1118.1288687753363 90.57510299030574 1126.133825484127 89.83258659477146 1126.1339421235748 89.83758523411024 1126.1340587630225 89.84258387344903 1126.1341754024702 89.84758251278782 1126.134292041918 89.8525811521266 1120.1024534230346 95.3107285335669 1114.0706148041515 100.76887591500721 1107.6180085281255 103.48521101067092 1101.1654022520995 106.20154610633462 1094.2048104185756 106.24952324353097 1087.2442185850518 106.29750038072733 1080.2009162422155 105.33744654514068 1073.157613899379 104.37739270955403 1061.5435623142066 102.44184387630423 1049.929510729034 100.50629504305445 1037.8191630042224 98.14413581171601 1025.7088152794108 95.78197658037756 1016.7751235483217 94.29012353008204 1007.8414318172327 92.79827047978654 997.6053965167278 91.8181551485714 987.3693612162228 90.83803981735628 975.0379808990082 90.47652059395483 962.7066005817935 90.11500137055337 949.7303109025402 89.36599749792504 936.7540212232867 88.6169936252967 921.4118221201621 87.69368727961313 906.0696230170375 86.77038093392954 891.0750216913916 85.43559514626253 876.0804203657456 84.1008093585955 861.9014962930426 82.6391989086699 847.7225722203394 81.1775884587443 825.3331579528711 78.56986836284008 802.9437436854029 75.96214826693587 778.1267475846034 72.34244165571047 753.3097514838039 68.72273504448506 726.990439961109 65.24583152295395 700.6711284384141 61.76892800142283 674.193705753619 58.618995959298715 647.716283068824 55.4690639171746 625.087922069125 53.07602167607379 602.4595610694261 50.68297943497299 568.6443267096978 47.52238004470222 534.8290923499695 44.36178065443145 501.6868338551276 42.74510576444111 468.54457536028565 41.12843087445077 436.091349773723 41.42385033109851 403.63812418716026 41.71926978774624 372.8585947308052 42.249528106908926 342.07906527445016 42.7797864260716 313.55881731703346 43.79897505184909 285.03856935961676 44.81816367762658 257.5940185401676 46.899139863876044 230.14946772071846 48.9801160501255 203.52948160516388 52.589494617051784 176.90949548960933 56.19887318397807 162.00614695430426 59.88936425914861 147.1027984189992 63.579855334319134 138.73554217842593 64.93915271988769 130.36828593785268 66.29845010545624 121.9507355800922 68.25261361955236 113.53318522233172 70.2067771336485 104.98322027328071 71.99795833306692 96.43325532422969 73.78913953248532 86.2681050411793 75.5766050528501 76.10295475812892 77.36407057321487 76.09979248046875 77.35458374023438 Z" fill="#22c55e"></path><path d="M 245.7726151781086 733.6151149827933 Q 245.7726151781086 733.6151149827933 252.58208009629183 722.3474674947869 259.39154501447507 711.0798200067804 268.40031822563253 700.3655444418134 277.40909143678994 689.6512688768463 293.9274558623996 672.6400291730063 310.44582028800926 655.6287894691662 327.93881479468166 639.141480607916 345.43180930135406 622.654171746666 366.1948536715213 606.699775044662 386.95789804168845 590.7453783426581 409.44070178610457 576.460568954037 431.9235055305207 562.1757595654157 456.55712495336337 548.2382678927943 481.19074437620606 534.3007762201728 508.18405375259874 523.0075303708327 535.1773631289914 511.7142845214927 553.1074762726837 505.13693296035126 571.0375894163759 498.55958139920983 605.9342833856767 490.390175094327 640.8309773549777 482.22076878944415 662.8347462993983 478.03994999503476 684.8385152438188 473.85913120062537 722.1746205375274 469.57608930211495 759.510725831236 465.2930474036045 792.2387102927974 463.11809397412287 824.9666947543589 460.9431405446413 855.7361647092268 460.02165882540254 886.5056346640949 459.10017710616376 916.441585508315 458.7106457553307 946.3775363525352 458.32111440449756 966.9915666100746 458.15706784995865 987.605596867614 457.99302129541974 1012.5142408555494 460.07683080867014 1037.4228848434848 462.16064032192054 1061.6415661667074 465.9171070354767 1085.8602474899299 469.67357374903287 1109.4288666585578 475.57599476493823 1132.9974858271858 481.4784157808436 1154.4937617947348 488.29233192595746 1175.990037762284 495.10624807107126 1195.889580522829 503.0253365538875 1215.789123283374 510.9444250367037 1233.9325754802019 519.332750301373 1252.0760276770297 527.7210755660424 1268.3963330927409 535.9497128186347 1284.716638508452 544.178350071227 1294.9746689105668 550.0346036247022 1305.232699312682 555.8908571781773 1317.0683531383033 563.8737234936782 1328.9040069639245 571.856589809179 1340.3700002902715 579.574256045107 1351.8359936166185 587.2919222810349 1362.4312438241682 595.9911832474268 1373.0264940317177 604.6904442138188 1383.2344454739602 613.083957137158 1393.4423969162028 621.4774700604974 1393.4392429031818 621.481349777222 1393.436088890161 621.4852294939467 1393.4329348771403 621.4891092106714 1393.4297808641193 621.492988927396 1383.128822066304 613.2137974930511 1372.827863268489 604.934606058706 1362.174975353752 596.3480626253538 1351.5220874390147 587.7615191920015 1340.0004177662313 580.126704630967 1328.4787480934478 572.4918900699324 1316.6098163007105 564.6073218183617 1304.7408845079733 556.7227535667909 1294.6715681770938 550.5639496830386 1284.6022518462146 544.4051457992862 1268.2855227270309 536.1790817577127 1251.9687936078471 527.9530177161391 1233.8313226917792 519.5684043888375 1215.6938517757112 511.183791061536 1195.8025664282475 503.26918585598315 1175.9112810807837 495.3545806504303 1154.4222445883124 488.54479111565 1132.933208095841 481.73500158086966 1109.3759929720495 475.83769418751115 1085.818777848258 469.94038679415263 1061.6092481410637 466.1888363234575 1037.3997184338693 462.4372858527624 1012.5037740827725 460.3591919240933 987.6078297316755 458.2810979954242 966.9946763169512 458.45236229043593 946.381522902227 458.62362658544765 916.4484405021963 459.0230619394397 886.5153581021655 459.42249729343166 855.7526746399542 460.3574078208401 824.9899911777428 461.2923183482485 792.2725157091818 463.48534667558397 759.5550402406209 465.6783750029195 722.2379881504937 469.9849399810879 684.9209360603666 474.29150495925626 662.9344985513225 478.5055037871335 640.9480610422784 482.7195026150107 606.0984146029216 490.9266138485504 571.2487681635649 499.1337250820901 553.3581320460776 505.76927324370763 535.4674959285901 512.4048214053252 508.5607225994496 523.7607650892 481.65394927030917 535.1167087730748 457.11196623344165 549.1513450462533 432.5699831965741 563.1859813194316 410.2416608495535 577.5819213368281 387.9133385025329 591.9778613542248 367.3825826253857 608.059514639037 346.8518267482384 624.1411679238493 329.63904327179966 640.8326623404016 312.4262597953609 657.5241567569539 296.23605575025414 674.6925956353052 280.04585170514736 691.8610345136566 271.17339777587813 702.489421645528 262.30094384660896 713.1178087773992 254.04497182936737 723.3721965066779 245.78899981212578 733.6265842359567 245.7808074951172 733.620849609375 Z" fill="#22c55e"></path><path d="M 556.4397062759381 771.0434660415631 Q 556.4397062759381 771.0434660415631 561.5798026534749 763.9877295943929 566.7198990310118 756.9319931472227 573.1912236400823 749.6112676998357 579.6625482491528 742.2905422524487 587.9731157468177 733.9784164114863 596.2836832444825 725.6662905705236 612.7174534298563 710.9280027322754 629.1512236152299 696.1897148940272 645.2434640908355 682.2001905291846 661.3357045664409 668.210666164342 678.6819808743558 654.4431148204487 696.0282571822705 640.6755634765556 708.4714890397179 631.3110264105374 720.9147208971652 621.946489344519 745.9722094209511 603.6675921675794 771.029697944737 585.3886949906399 794.2642546947457 569.4048564855525 817.4988114447544 553.4210179804652 841.0241386202126 538.0459435799629 864.5494657956707 522.6708691794606 888.9010560055167 505.75972266201256 913.2526462153626 488.8485761445645 937.2432121353027 471.63180536432066 961.2337780552426 454.4150345840768 987.2197464304141 435.27130398181316 1013.2057148055857 416.12757337954946 1039.6798491034597 396.52011026307446 1066.1539834013338 376.9126471465994 1083.5059423229109 363.5641032959834 1100.8579012444877 350.21555944536743 1119.7143382062636 335.5784145199973 1138.5707751680397 320.94126959462716 1158.0677614925598 306.8300024986869 1177.56474781708 292.71873540274663 1189.4387032710479 284.2131867800035 1201.312658725016 275.70763815726036 1208.4969401764033 269.1291816998737 1215.6812216277904 262.55072524248703 1224.9533047895238 255.8698154396347 1234.2253879512575 249.18890563678235 1242.6848392300212 242.63261534680097 1251.1442905087852 236.0763250568196 1257.713814580808 230.45240728652823 1264.2833386528312 224.82848951623683 1269.7961038322535 220.07341121101967 1275.3088690116758 215.31833290580252 1282.3214773760033 208.85428055433147 1289.334085740331 202.39022820286044 1294.2580895735744 197.50206093349817 1299.1820934068178 192.61389366413587 1304.0137413318644 185.74124588121404 1308.8453892569107 178.8685980982922 1310.9101145069171 175.1255216330194 1312.9748397569235 171.38244516774657 1312.9796703359661 171.3837357126364 1312.9845009150088 171.38502625752625 1312.9893314940514 171.3863168024161 1312.994162073094 171.38760734730593 1312.6232672179217 178.9447575246628 1312.2523723627496 186.5019077020197 1309.463862092663 192.8619405692241 1306.6753518225764 199.2219734364285 1301.428159607406 204.72520845302 1296.1809673922357 210.22844346961148 1288.1890330320516 216.01641490556977 1280.1970986718673 221.8043863415281 1274.1128265949362 225.7894257972005 1268.0285545180052 229.7744652528729 1260.8149101605572 234.58750561884278 1253.6012658031095 239.40054598481265 1244.8217491435043 245.58578216319418 1236.042232483899 251.7710183415757 1226.696208927135 258.19013631440953 1217.3501853703715 264.6092542872433 1209.4231515535116 270.2863608363539 1201.496117736652 275.96346738546447 1189.6299767759028 284.47853615823647 1177.7638358151535 292.9936049310085 1158.2818268991623 307.1148272663815 1138.7998179831711 321.2360496017545 1119.9570494043141 335.8921867654578 1101.114280825457 350.5483239291611 1083.7784692424193 363.92509440922333 1066.4426576593814 377.30186488928564 1039.9945030746146 396.94545014049106 1013.5463484898477 416.5890353916964 987.5934552707535 435.7845940466817 961.6405620516592 454.98015270166707 937.6941689067371 472.26935836770764 913.7477757618149 489.5585640337482 889.450582033428 506.57386198090325 865.153388305041 523.5891599280583 841.7311265782689 539.0889280723711 818.308864851497 554.588696216684 795.2226500346776 570.7394880186755 772.1364352178583 586.8902798206672 747.2839834338962 605.3982167072588 722.4315316499341 623.9061535938506 710.2798305739395 633.5787351366469 698.128129497945 643.251316679443 681.2360195493236 657.396930444525 664.3439096007021 671.5425442096068 648.8272855561029 686.0949505871597 633.3106615115038 700.6473569647126 617.5707706934547 715.9305309950605 601.8308798754058 731.2137050254084 593.518826038041 739.5242356146903 585.2067722006763 747.8347662039722 577.8860467532893 754.3060908130427 570.5653213059023 760.7774154221132 563.5095848587321 765.9175117996501 556.4538484115619 771.0576081771869 556.44677734375 771.050537109375 Z" fill="#22c55e"></path><path d="M 205.85629984937518 149.7085610740985 Q 205.85629984937518 149.7085610740985 214.26173305526083 146.49463714818722 222.66716626114652 143.28071322227595 233.3092542192174 141.92136967116048 243.95134217728827 140.562026120045 254.06483908779333 139.55237271834457 264.1783359982984 138.54271931664414 275.47240637445793 139.37702401435138 286.7664767506174 140.2113287120586 297.6313852460287 141.52995786761892 308.49629374143996 142.84858702317925 318.99721586695875 144.55167945943242 329.4981379924775 146.25477189568556 340.29998769430705 148.4790071987054 351.1018373961366 150.70324250172527 362.9356865703335 153.12296661379867 374.7695357445303 155.5426907258721 383.77378089841704 158.71037697586948 392.77802605230386 161.87806322586687 401.54510129029876 164.88342752781736 410.31217652829366 167.88879182976785 418.8226804226698 170.35451265878402 427.33318431704595 172.82023348780015 437.86574811804314 176.75646237952515 448.3983119190403 180.6926912712501 460.83762583250984 185.61734789088172 473.2769397459794 190.54200451051335 487.1487987779435 196.21966208231373 501.0206578099076 201.89731965411409 525.0618815464013 210.62387205654488 549.1031052828951 219.35042445897565 571.5077108685903 228.2709117165831 593.9123164542855 237.19139897419055 615.5736822819273 246.12473790558022 637.2350481095691 255.05807683696992 661.1337314685604 266.1269271118358 685.0324148275516 277.19577738670165 710.225277373192 289.85500653650524 735.4181399188323 302.5142356863088 760.4577967071191 316.5523857239517 785.4974534954058 330.59053576159465 810.8228643494482 345.19467498808433 836.1482752034906 359.79881421457395 852.2848504444225 369.9778160826563 868.4214256853546 380.1568179507386 887.10907647871 393.1099292535139 905.7967272720653 406.0630405562892 924.4889278039047 419.1101813070859 943.1811283357441 432.1573220578826 955.0657636727773 440.58056439726715 966.9503990098104 449.00380673665177 980.6086760980352 459.40696372601474 994.2669531862598 469.8101207153777 1006.1691176628858 479.97716343868444 1018.0712821395119 490.1442061619911 1029.580144995688 499.4869259751909 1041.0890078518642 508.8296457883907 1050.2880850928573 517.4700113079524 1059.4871623338504 526.1103768275141 1067.6246478227047 533.0592459421018 1075.762133311559 540.0081150566895 1080.7602786354398 543.9918613682786 1085.7584239593207 547.9756076798677 1091.336576602037 553.0901201299791 1096.9147292447535 558.2046325800907 1103.2730304907097 565.0714561652037 1109.631331736666 571.9382797503167 1114.510057903472 577.6183120979002 1119.3887840702778 583.2983444454837 1123.8012196741297 589.2995020796002 1128.2136552779814 595.3006597137165 1131.7039298337645 600.7645851532336 1135.1942043895474 606.2285105927507 1140.064194693072 614.2951431374663 1144.9341849965967 622.3617756821819 1148.8744112297343 631.1965283168132 1152.8146374628718 640.0312809514445 1155.4766977168263 647.2312752164772 1158.1387579707807 654.43126948151 1159.355093120515 658.5030239694545 1160.5714282702495 662.574778457399 1160.5676187249774 662.5780168775105 1160.563809179705 662.5812552976221 1160.5599996344326 662.5844937177336 1160.5561900891605 662.5877321378451 1158.464969727722 661.1664504746742 1156.3737493662836 659.7451688115033 1151.536986503037 654.8712784544089 1146.7002236397902 649.9973880973143 1142.099398466507 643.8475688612396 1137.4985732932234 637.6977496251648 1132.431043238334 629.0651212717969 1127.3635131834449 620.432492918429 1122.754046354898 611.198235687754 1118.144579526351 601.9639784570792 1114.5190267372695 595.8218545022303 1110.8934739481883 589.6797305473813 1106.9873523682945 583.6673907738698 1103.081230788401 577.6550510003583 1097.2093296156527 570.5144714041724 1091.3374284429044 563.3738918079864 1086.7065627566835 557.47381416699 1082.0756970704629 551.5737365259937 1078.2446393984067 546.5208554173292 1074.4135817263505 541.4679743086648 1066.840587567136 533.9061796977476 1059.2675934079216 526.3443850868302 1050.0687647214738 517.7220675757923 1040.869936035026 509.09975006475423 1029.3457407117453 499.7683977884914 1017.8215453884646 490.4370455122286 1005.9123120577292 480.29713925895055 994.0030787269939 470.15723300567254 980.3306146795612 459.7874135571384 966.6581506321285 449.41759410860425 954.7471765127895 441.03531657802876 942.8362023934504 432.6530390474532 924.106827308734 419.66179944878036 905.3774522240176 406.6705598501075 886.6544197249711 393.8049601226512 867.9313872259248 380.93936039519485 851.7469412319779 370.88051199051256 835.562495238031 360.8216635858302 810.1584445065586 346.3753839863524 784.7543937750861 331.92910438687466 759.6387880953876 318.12538580884524 734.5231824156889 304.3216672308158 709.2238006949759 291.9827166070704 683.924418974263 279.64376598332507 659.9139542318162 269.02943325183946 635.9034894893696 258.4151005203539 614.0455419992899 250.08925432478156 592.1875945092102 241.76340812920918 569.5859702871229 233.70609220435085 546.9843460650357 225.64877627949252 522.5206303813337 218.05960066297808 498.0569146976317 210.47042504646362 483.8876536324441 206.45419092875363 469.71839256725644 202.43795681104362 456.69069969193157 199.74547311574275 443.6630068166067 197.05298942044186 433.09726247944775 194.882557305754 422.53151814228875 192.71212519106612 413.4710158131541 190.93725671788383 404.4105134840195 189.1623882447015 395.4660888417868 187.2539077802774 386.52166419955415 185.34542731585327 372.0172528206661 182.45727230357062 357.51284144177805 179.56911729128797 351.2304549757611 178.65033244521373 344.9480685097442 177.73154759913947 335.0071295588454 175.52631809890335 325.0661906079466 173.3210885986672 315.2562676820686 171.45228650188062 305.4463447561906 169.58348440509408 293.8243107591088 168.10625465938105 282.202276762027 166.62902491366802 273.1608979669106 164.99205492454672 264.1195191717942 163.35508493542545 253.89361800393633 162.26695454664056 243.66771683607845 161.17882415785567 232.85636659605973 159.38500593776055 222.045016356041 157.59118771766543 213.95022373184855 153.65986495752566 205.85543110765607 149.72854219738588 205.85586547851562 149.7185516357422 Z" fill="#22c55e"></path><path d="M 76.09979248046875 281.9599401855469 Q 76.09979248046875 281.9599401855469 82.55640392303467 279.12579820356314 89.01301536560058 276.29165622157944 100.24079537522792 274.53851597761263 111.46857538485527 272.7853757336458 123.05596293964825 271.59828222664254 134.64335049444125 270.41118871963926 141.8450218632147 270.2195100585737 149.04669323198812 270.0278313975081 156.77074806894464 270.16460389882513 164.49480290590117 270.3013764001421 173.040218108152 270.9627485614078 181.58563331040284 271.6241207226736 190.95652880743555 273.2919743433089 200.32742430446825 274.9598279639441 209.92200430865404 277.0555029771506 219.51658431283985 279.1511779903571 229.13015303300014 280.96310903813134 238.74372175316043 282.7750400859056 249.1284568022782 285.32333298873755 259.51319185139596 287.8716258915695 269.32498910076185 290.4543541291363 279.13678635012775 293.03708236670303 289.19838477175335 295.37200439742526 299.25998319337896 297.70692642814754 309.3844874597654 300.2453838469221 319.5089917261519 302.7838412656966 329.3049856888506 305.6943749418293 339.10097965154927 308.604908617962 348.5536806086236 311.2397734736194 358.0063815656979 313.87463832927676 366.78300369506235 316.30546208632745 375.5596258244268 318.7362858433781 383.68251907364225 321.05893101239883 391.8054123228577 323.3815761814195 403.81844725046125 326.22938918021725 415.8314821780648 329.07720217901493 422.40316208915306 331.0963321206493 428.9748420002414 333.11546206228377 440.51736638475893 337.4230671200338 452.0598907692764 341.73067217778384 462.08470630871597 345.92576208498554 472.1095218481555 350.1208519921872 480.67367690842684 354.2580481338405 489.2378319686982 358.39524427549367 496.7867711239411 362.617314086339 504.335710279184 366.83938389718435 510.83996472583107 371.9501905779381 517.3442191724781 377.0609972586918 523.1460551618572 383.0467997852511 528.9478911512363 389.0326023118103 533.3938469411113 394.9657380480627 537.8398027309863 400.8988737843151 542.5197227205499 409.2157624336229 547.1996427101134 417.5326510829307 550.1966390165951 424.44664847409035 553.1936353230767 431.36064586525004 555.7852602294686 437.5894374445697 558.3768851358603 443.81822902388933 560.820197576825 449.59863376940734 563.2635100177897 455.3790385149253 565.4469721702119 457.2522831213116 567.6304343226342 459.12552772769794 567.6302863243982 459.1305255368702 567.6301383261622 459.1355233460424 567.6299903279262 459.1405211552146 567.6298423296902 459.1455189643869 565.4306680116295 459.5850034491291 563.2314936935687 460.0244879338712 557.0442422316153 458.7985133435163 550.8569907696619 457.5725387531613 545.1260302748788 453.5827417710941 539.3950697800957 449.59294478902694 534.7197986595891 444.3493075851305 530.0445275390824 439.105670381234 525.6536168370131 432.984133219146 521.2627061349439 426.8625960570579 516.2658910250484 419.2599465716114 511.269075915153 411.65729708616493 505.8075588732071 404.5344139238591 500.34604183126123 397.4115307615533 495.7575379165126 392.70895092236753 491.169034001764 388.00637108318176 484.2709578418349 383.1764558177982 477.3728816819058 378.34654055241475 469.89904852892226 373.6754059692038 462.4252153759387 369.00427138599275 453.2637409072453 364.05194344907426 444.10226643855185 359.09961551215576 433.72400309590887 354.07050105265733 423.34573975326583 349.0413865931589 417.38377935411177 346.6306667396699 411.42181895495776 344.21994688618094 399.7192852541112 339.82261616751794 388.0167515532646 335.425285448855 380.1390069092825 332.7145179661128 372.2612622653004 330.00375048337065 363.64537430704 327.3432806704417 355.02948634877964 324.68281085751266 345.5026810765851 322.0901917473861 335.97587580439057 319.4975726372595 326.4342494832627 316.86013306899247 316.89262316213484 314.22269350072537 306.83688583985315 312.14712380032404 296.7811485175715 310.07155409992265 286.36790553169214 308.3019307606171 275.95466254581277 306.5323074213115 266.2863983118719 304.52131490656086 256.618134077931 302.51032239181023 246.48747177489776 301.0018496113402 236.35680947186452 299.4933768308702 226.39493224509778 298.5120071756315 216.43305501833103 297.53063752039276 206.97580089532636 296.4298348052324 197.5185467723217 295.329032090072 189.06965659755284 294.5397947034746 180.62076642278396 293.7505573168772 172.55731559407246 293.6945306439144 164.49386476536097 293.63850397095166 156.77027899867454 293.7752764722686 149.04669323198812 293.9120489735856 141.8450218632147 293.72037031252006 134.64335049444125 293.5286916514545 123.05596293964825 292.3415981444512 111.46857538485527 291.1545046374479 100.24079537522792 289.4013643934811 89.01301536560058 287.6482241495143 82.55640392303467 284.8140821675306 76.09979248046875 281.97994018554687 76.09979248046875 281.9699401855469 Z" fill="#a855f7"></path><path d="M 756.063372964525 704.9190245053237 Q 756.063372964525 704.9190245053237 761.416197010825 695.7824460135088 766.7690210571252 686.6458675216938 774.1872186512417 675.6798711782096 781.6054162453581 664.7138748347253 788.2626501435343 655.9424615380709 794.9198840417106 647.1710482414165 805.2194295842021 634.4097942098605 815.5189751266935 621.6485401783044 826.4812085683227 607.7169920987524 837.4434420099519 593.7854440192004 849.7332679727303 579.9904051334145 862.0230939355089 566.1953662476286 869.5801823530287 557.6766433792945 877.1372707705484 549.1579205109606 886.267361651594 539.2567919009444 895.3974525326395 529.3556632909283 905.0817315726802 520.1411414837071 914.7660106127208 510.9266196764859 924.2925043648352 502.73619351683556 933.8189981169494 494.5457673571852 947.2186189807753 484.2691966521635 960.6182398446014 473.9926259471418 968.9269398226896 468.1277161812527 977.2356398007779 462.2628064153636 987.5415421208525 454.6648951314211 997.847444440927 447.06698384747847 1004.9562222840378 443.2029220401524 1012.0650001271487 439.3388602328263 1019.7851218111014 436.73819090519225 1027.5052434950542 434.1375215775583 1031.5306929722337 438.2529386520347 1035.556142449413 442.3683557265111 1035.551142449413 442.3683557276833 1035.546142449413 442.36835572885553 1035.5411424494132 442.36835573002776 1035.536142449413 442.3683557312 1032.8845224933802 441.0046898096055 1030.2329025373472 439.64102388801103 1023.0205862902956 443.25372580462397 1015.8082700432441 446.86642772123696 1008.594169824926 450.09840209312443 1001.3800696066079 453.3303764650119 990.0798825497731 459.00332364294457 978.7796954929382 464.67627082087716 970.0103724884208 469.73719679338257 961.2410494839033 474.79812276588797 947.9610649153115 485.1654090860638 934.6810803467197 495.5326954062396 925.3201257410769 503.8439787337268 915.9591711354343 512.1552620612139 906.5224779366351 521.5122423273585 897.085784737836 530.8692225935031 888.2333913930727 541.0337430342145 879.3809980483095 551.1982634749259 871.6343975647992 559.5087167105553 863.887797081289 567.8191699461848 851.9849653644842 581.8061703939438 840.0821336476793 595.7931708417027 829.5685329293972 610.0951048452157 819.0549322111151 624.3970388487286 809.2071364628227 637.5554080434098 799.3593407145303 650.713777238091 792.3711759873327 659.0416188728865 785.3830112601352 667.369460507682 777.574361129337 678.0689940637949 769.7657109985389 688.7685276199077 762.9227022201319 696.849556244792 756.079693441725 704.9305848696763 756.071533203125 704.9248046875 Z" fill="#a855f7"></path><path d="M 1339.983648716014 475.3585085772386 Q 1339.983648716014 475.3585085772386 1339.9010622454466 483.98113759484175 1339.8184757748795 492.60376661244493 1338.287263233265 500.0632661225406 1336.7560506916507 507.52276563263626 1332.2091600693095 518.0170471299234 1327.6622694469684 528.5113286272104 1322.8002343122143 537.9891839491254 1317.9381991774603 547.4670392710402 1311.06307409356 557.4698111715095 1304.1879490096599 567.4725830719789 1296.3439364015285 578.3051597345788 1288.499923793397 589.1377363971786 1278.9209964366923 601.9129953499582 1269.3420690799876 614.6882543027378 1258.7150858776706 628.2993867937143 1248.0881026753536 641.9105192846907 1235.6052723262444 656.9755220305301 1223.1224419771352 672.0405247763696 1202.6739314157749 695.5970091823679 1182.2254208544148 719.1534935883662 1162.1604602251055 739.3397520853362 1142.095499595796 759.526010582306 1142.0919016534917 759.5225385783923 1142.0883037111876 759.5190665744786 1142.0847057688834 759.515594570565 1142.0811078265792 759.5121225666513 1161.505181204961 738.7769796080904 1180.9292545833425 718.0418366495294 1201.0680793250058 694.2647148906299 1221.2069040666693 670.4875931317303 1233.3275536699864 655.2036035456408 1245.4482032733035 639.9196139595513 1255.575738904361 626.0094465645095 1265.7032745354186 612.0992791694676 1274.574310782518 598.9425991670939 1283.4453470296176 585.7859191647202 1290.3170188316321 574.4262296506726 1297.1886906336467 563.0665401366249 1302.9946997087297 552.9242868994861 1308.8007087838128 542.7820336623474 1313.5205041380268 533.555907071554 1318.2402994922409 524.3297804807606 1322.7349143172873 514.4467369467673 1327.2295291423338 504.5636934127739 1330.092391918102 497.83657350758637 1332.9552546938703 491.10945360239884 1336.4596799420533 483.2318567899239 1339.964105190236 475.3542599774489 1339.973876953125 475.35638427734375 Z" fill="#a855f7"></path><path d="M 603.8553756218975 160.93769930008818 Q 603.8553756218975 160.93769930008818 615.8537122723251 157.22887360790577 627.8520489227527 153.52004791572335 646.9894099736023 148.33036114247972 666.1267710244518 143.14067436923608 686.5728921702515 139.34789390755301 707.0190133160512 135.55511344586995 731.8456168262355 131.15725362839802 756.6722203364199 126.7593938109261 800.6105610623121 121.35106921785632 844.5489017882043 115.94274462478654 874.7076782156079 113.6816249913784 904.8664546430115 111.42050535797026 942.0817594149088 110.4866282645426 979.2970641868061 109.55275117111495 1019.1436039232731 109.17570945282087 1058.9901436597402 108.79866773452679 1098.1638376015471 108.65264341345812 1137.3375315433543 108.50661909238947 1176.2256715005624 108.45485333515123 1215.1138114577702 108.403087577913 1250.2947923213087 108.74728710378008 1285.4757731848472 109.09148662964716 1307.6034112715924 109.97336069313573 1329.7310493583375 110.8552347566243 1354.1969510494928 113.091697579883 1378.6628527406483 115.32816040314172 1378.6624136146531 115.33314108264962 1378.661974488658 115.33812176215751 1378.6615353626628 115.34310244166541 1378.6610962366676 115.3480831211733 1354.1895523945554 113.26993296073681 1329.718008552443 111.1917828003003 1307.5948484979517 110.3616435653252 1285.4716884434602 109.53150433035009 1250.2932545629126 109.22344210773531 1215.114820682365 108.91537988512053 1176.2275842081758 109.01688818117287 1137.3403477339864 109.11839647722523 1098.1692336202996 109.33301698742858 1058.998119506613 109.54763749763191 1019.1601772260174 110.01917185291899 979.3222349454217 110.49070620820606 942.140911246565 111.55347869967524 904.9595875477083 112.61625119114441 874.8516172401578 115.05313058102293 844.7436469326072 117.49000997090144 800.8940376490945 123.13580072674146 757.0444283655817 128.7815914825815 732.2954311528093 133.51338033620016 707.546433940037 138.24516918981885 687.3042483813155 142.42989566850062 667.0620628225939 146.6146221471824 647.8543035197448 151.75551236597366 628.6465442168957 156.89640258476493 616.2532503131241 158.92678511401806 603.8599564093525 160.9571676432712 603.857666015625 160.9474334716797 Z" fill="#a855f7"></path><path d="M 124.75831604003906 486.57526611328126 Q 124.75831604003906 486.57526611328126 131.5736312866211 483.39386994830005 138.38894653320312 480.21247378331884 148.793932360224 479.0242005773733 159.19891818724489 477.8359273714277 171.28219797395136 479.2077796255421 183.36547776065783 480.5796318796565 190.32813680751894 482.1245861546232 197.2907958543801 483.6695404295899 205.0318701930051 486.07042405535174 212.77294453163006 488.47130768111356 221.40020013790476 491.66067008774303 230.02745574417946 494.85003249437256 239.09277411918447 497.9086573826842 248.1580924941895 500.9672822709959 258.12336153759645 504.4838398712208 268.08863058100343 508.00039747144575 283.4101428585738 512.7880502160256 298.7316551361442 517.5757029606053 311.7411886643771 521.7633927529972 324.75072219261006 525.9510825453891 338.76007520778506 529.7451772972152 352.7694282229601 533.5392720490413 366.95316140173674 537.1232005906227 381.1368945805134 540.7071291322042 396.82605161060906 544.5091470170274 412.5152086407047 548.3111649018507 429.2034940037149 552.1697074409927 445.89177936672513 556.0282499801348 463.0143285278664 559.8866664779828 480.13687768900763 563.7450829758308 498.5259798218497 567.9443635964753 516.9150819546918 572.14364421712 534.7640250153183 576.1147581295465 552.612968075945 580.085872041973 571.6684764674927 583.9503323948968 590.7239848590405 587.8147927478205 609.220696687181 591.2689676565751 627.7174085153215 594.7231425653297 647.056146535984 598.3570316648506 666.3948845566465 601.9909207643717 685.3693383825132 604.9791452173804 704.34379220838 607.9673696703892 722.4514893109622 610.6793961004417 740.5591864135442 613.3914225304943 759.3696658181772 615.2660271477982 778.1801452228101 617.1406317651022 796.9342587883741 618.2997929201326 815.6883723539381 619.4589540751631 833.702699792973 620.3130761909617 851.7170272320079 621.1671983067605 869.0564888552883 621.532128611076 886.3959504785686 621.8970589153915 903.4501652403532 622.0535991140895 920.5043800021377 622.2101393127874 931.3419551941122 621.8845920983309 942.1795303860865 621.5590448838744 955.3913585401863 621.6966137903114 968.6031866942861 621.8341826967485 981.7512179572849 621.925632088762 994.8992492202837 622.0170814807755 1007.6432857333756 621.004496420038 1020.3873222464675 619.9919113593005 1032.2632887819532 619.0644780224485 1044.1392553174387 618.1370446855965 1055.220579347686 616.1307145101271 1066.301903377933 614.1243843346577 1075.9636840950961 611.8546619198114 1085.625464812259 609.584939504965 1094.3119781983096 607.2464244212174 1102.99849158436 604.90790933747 1110.5170615030856 602.5294154128223 1118.0356314218113 600.1509214881748 1127.8198741496565 595.601233631922 1137.6041168775016 591.0515457756693 1147.6839167398707 585.6099545594349 1157.76371660224 580.1683633432004 1167.6729047691026 573.2056504519513 1177.5820929359652 566.2429375607022 1187.3831653490136 558.5591672033058 1197.184237762062 550.8753968459093 1205.3525883191755 542.7230568830828 1213.5209388762894 534.5707169202562 1218.1616352713004 529.5041862531325 1222.8023316663116 524.4376555860088 1226.7194938436567 519.5391299616875 1230.6366560210017 514.6406043373663 1235.3612460774739 509.1687301102851 1240.0858361339458 503.6968558832038 1247.7667221311315 493.69093523166487 1255.4476081283171 483.685014580126 1263.0425128445017 472.8409746946125 1270.6374175606863 461.996934809099 1276.4832329106484 452.96728123327404 1282.3290482606108 443.93762765744907 1287.6566774202906 435.1315946222901 1292.9843065799707 426.3255615871311 1297.2644803694689 417.41816137756473 1301.544654158967 408.5107611679983 1304.620345320839 400.37374112725706 1307.6960364827114 392.2367210865159 1309.521710957332 385.5623847236325 1311.3473854319527 378.8880483607491 1313.1146887372806 371.8028415729997 1314.8819920426088 364.7176347852503 1316.3800147532752 358.44823597729874 1317.8780374639414 352.1788371693472 1320.8528844320913 345.2238527543186 1323.827731400241 338.26886833928995 1328.6137874926637 332.7125126038994 1333.3998435850865 327.1561568685089 1339.438998567311 322.37273394262036 1345.4781535495354 317.58931101673187 1351.1058999933375 314.6045798604922 1356.7336464371397 311.6198487042525 1360.803771174506 309.2940489431975 1364.8738959118723 306.9682491821424 1364.8776496013043 306.9715521831489 1364.8814032907362 306.97485518415533 1364.8851569801682 306.97815818516176 1364.8889106696001 306.98146118616825 1364.1155902333717 312.9511126170281 1363.342269797143 318.920764047888 1360.5782718069925 325.46557901250594 1357.814273816842 332.01039397712395 1354.1972133648305 339.2370899708993 1350.580152912819 346.4637859646747 1348.0939139967331 353.02106673808885 1345.6076750806474 359.57834751150295 1343.805020324985 366.53629742999397 1342.0023655693228 373.4942473484849 1340.1121766417764 379.7017482944731 1338.2219877142302 385.9092492404613 1335.0902135366373 394.54197053009614 1331.9584393590444 403.17469181973104 1327.9432531968114 411.8653818088136 1323.9280670345786 420.5560717978962 1318.9375778840697 429.5473683939339 1313.9470887335608 438.5386649899716 1307.5679522043501 447.90091180265733 1301.1888156751393 457.26315861534306 1294.8480639812865 465.61052516450724 1288.507312287434 473.9578917136714 1280.6633668144336 485.24519797743426 1272.8194213414333 496.5325042411971 1264.6308088661094 507.1770529892052 1256.4421963907855 517.8216017372133 1251.873048568767 523.1116301231854 1247.3039007467482 528.4016585091574 1242.8574224425345 533.6331987902053 1238.4109441383207 538.8647390712531 1233.5005525781016 544.1296795371668 1228.5901610178823 549.3946200030805 1223.6879529611697 554.1590028964058 1218.7857449044573 558.9233857897312 1208.6545054819721 566.1840411323969 1198.523266059487 573.4446964750628 1193.1161656575464 577.2985791957403 1187.7090652556058 581.152461916418 1176.006297442948 587.9712703062105 1164.30352963029 594.790078696003 1153.2323262289592 598.8224019134926 1142.1611228276286 602.8547251309823 1131.0623676361731 605.4776479767515 1119.9636124447177 608.1005708225207 1112.1015439082646 609.4511065653105 1104.2394753718115 610.8016423081002 1095.3043449088195 612.1732816176336 1086.3692144458278 613.5449209271669 1076.5123093830753 614.9410230727976 1066.6554043203225 616.3371252184285 1055.4424530435072 617.89223153751 1044.229501766692 619.4473378565917 1032.3443445902474 620.1477660671206 1020.4591874138029 620.8481942776496 1007.6788959029601 621.9778331358415 994.8986043921174 623.1074719940334 981.7494209629996 623.1754151946031 968.6002375338818 623.2433583951729 955.3843326750512 623.3256186158601 942.1684278162206 623.4078788365474 931.3351185464746 622.9521935379736 920.5018092767285 622.4965082393998 903.4457628050533 622.3468411813512 886.389716333378 622.1971741233027 869.0458721419457 621.8416167646853 851.7020279505134 621.486059406068 833.6846268066766 620.6449164326127 815.6672256628399 619.8037734591574 796.9048897365367 618.6621141261453 778.1425538102335 617.5204547931332 759.3191172746734 615.6694026899513 740.4956807391134 613.8183505867694 722.3811088038792 611.1401204238127 704.2665368686452 608.4618902608561 685.2762107204226 605.5191470524646 666.2858845721998 602.5764038440733 646.9358114003815 599.0070639448036 627.5857382285631 595.4377240455337 609.0661130884122 592.0711909585121 590.5464879482613 588.7046578714906 571.45677720371 584.9604211019998 552.3670664591587 581.2161843325092 534.4786301071808 577.4124650283629 516.5901937552029 573.6087457242168 498.15543267915933 569.6422846714459 479.72067160311576 565.675823618675 462.52695815304634 562.1367523842679 445.3332447029769 558.5976811498607 428.54147109567526 555.1784363203692 411.7496974883736 551.7591914908777 395.92637481523093 548.5649873444952 380.10305214208825 545.3707831981127 365.7158240591092 542.6210789617651 351.32859597613015 539.8713747254176 336.93625985231654 537.20283169094 322.54392372850293 534.5342886564625 309.23801143395485 531.9557994663753 295.9320991394067 529.3773102762881 279.71898985498757 526.6844868821762 263.5058805705684 523.9916634880643 253.28811743456993 521.723122849502 243.07035429857146 519.4545822109399 233.3422624272273 517.3412388168109 223.6141705558831 515.227895422682 215.02967603632695 512.9999510106783 206.4451815167708 510.7720065986746 199.00808234154977 508.8663135188289 191.57098316632872 506.96062043898326 184.76431904268588 505.1244420817302 177.95765491904302 503.28826372447713 167.89635502208804 500.02883312403446 157.83505512513307 496.7694025235918 148.1120008291681 494.8637304834177 138.38894653320312 492.95805844324366 131.5736312866211 489.77666227826245 124.75831604003906 486.59526611328124 124.75831604003906 486.58526611328125 Z" fill="#a855f7"></path><path d="M 56.12816450815336 535.2397470256315 Q 56.12816450815336 535.2397470256315 58.90108072203434 525.7497258155187 61.673996935915305 516.2597046054059 75.53447116304132 496.69076890721686 89.39494539016732 477.12183320902784 102.44150820922431 461.5806196702409 115.48807102828128 446.0394061314539 130.11929215702713 430.8885643585013 144.75051328577297 415.7377225855487 162.5279371764346 400.3759304550317 180.3053610670962 385.0141383245148 203.32472369504882 367.4165061092759 226.34408632300145 349.8188738940369 253.02206114219194 332.3272633721264 279.7000359613824 314.8356528502159 324.41334450946096 288.0612935271755 369.1266530575395 261.28693420413515 410.38118588213314 238.09136186340896 451.6357187067268 214.8957895226828 494.6523369707968 194.28795162792898 537.6689552348669 173.68011373317515 584.6575080854478 155.60504929943335 631.6460609360288 137.52998486569155 679.9569941242403 121.60669249718116 728.2679273124517 105.68340012867077 761.7193262384551 97.12770734633847 795.1707251644586 88.57201456400615 835.2152982015228 79.91878708500889 875.259871238587 71.26555960601164 916.6735185128005 64.36261277988847 958.087165787014 57.459665953765295 996.853967520995 53.093343354936536 1035.6207692549758 48.72702075610777 1059.9890537256258 46.87313687771554 1084.3573381962758 45.019252999323314 1111.5750191816137 44.23259458771295 1138.7927001669514 43.4459361761026 1163.9904701636895 43.11260897323386 1189.1882401604275 42.77928177036513 1204.5602007996545 42.638311929817235 1219.9321614388814 42.497342089269345 1236.5091590831216 42.437927245315514 1253.0861567273616 42.37851240136168 1267.6672459338283 43.07110015181364 1282.248335140295 43.7636879022656 1294.5508442206092 45.470696814069186 1306.8533533009231 47.17770572587276 1317.8730987491422 48.66349543816822 1328.892844197361 50.149285150463676 1335.1414181337427 50.490029419020665 1341.3899920701242 50.830773687577654 1348.1420635610662 51.74843137921886 1354.894135052008 52.66608907086007 1361.2656485314435 54.297153738968106 1367.637162010879 55.92821840707614 1378.0194564303786 59.805632159117096 1388.4017508498782 63.68304591115805 1395.5776072750298 68.26732680145466 1402.7534637001813 72.85160769175125 1407.8486717602714 78.33432551992104 1412.9438798203612 83.8170433480908 1415.8055677977836 90.3519314790313 1418.6672557752058 96.88681960997177 1419.2986105690047 101.33875878067381 1419.9299653628034 105.79069795137586 1419.9253525177523 105.79262711195351 1419.920739672701 105.79455627253115 1419.9161268276498 105.7964854331088 1419.9115139825988 105.79841459368645 1415.999365710028 101.80596629879679 1412.0872174374576 97.81351800390715 1407.2141293618433 93.21549417271224 1402.341041286229 88.61747034151733 1396.0514771646149 83.98843944465072 1389.7619130430005 79.35940854778411 1382.1977706750959 74.88299715310936 1374.633628307191 70.40658575843459 1363.8873461481003 65.2103860389738 1353.1410639890096 60.014186319513 1340.881023736661 55.90473181344703 1328.6209834843128 51.79527730738106 1317.7128486349325 49.65942504851841 1306.8047137855524 47.52357278965575 1294.5203316670118 45.773083596356145 1282.235949548471 44.022594403056544 1267.6615247093787 43.3319021667193 1253.0870998702865 42.64120993038207 1236.510871681226 42.703028644123805 1219.9346434921658 42.76484735786554 1204.5632674395274 42.90913294718956 1189.191891386889 43.05341853651359 1163.9964042088336 43.39128058040231 1138.8009170307782 43.72914262429102 1111.5903716903154 44.52175302858055 1084.3798263498527 45.31436343287008 1060.0178560350714 47.176406180124644 1035.6558857202901 49.0384489273792 996.8992866608849 53.41548309477817 958.1426876014797 57.79251726217714 916.7404601918065 64.71015975854581 875.3382327821332 71.62780225491449 835.3061505714952 80.30158155221355 795.2740683608572 88.9753608495126 761.8461058469547 97.55705160102087 728.4181433330524 106.13874235252914 680.1339395395 122.09868810635388 631.8497357459476 138.05863386017862 584.9078508223416 156.17888214491953 537.9659658987357 174.29913042966044 495.0100654225315 194.96865071140888 452.05416494632726 215.63817099315733 410.86867780299605 238.92569085340392 369.68319065966483 262.2132107136505 325.0761831670608 289.1067377604885 280.4691756744567 316.0002648073266 253.9659826382728 333.6338311486525 227.46278960208892 351.26739748997846 204.6861526691422 369.0531518968768 181.90951573619546 386.8389063037751 164.515776324672 402.40406139825484 147.12203691314858 417.96921649273463 133.0136777062729 433.3875657288505 118.90531849939721 448.8059149649664 106.52941528720083 464.68015164914846 94.15351207500447 480.5543883333305 80.26849091839102 499.4560927794896 66.38346976177756 518.3577972256487 61.2649702842828 526.8027995140711 56.146470806788045 535.2478018024935 56.1373176574707 535.2437744140625 Z" fill="#a855f7"></path><path d="M 504.03629300576347 598.8698375004349 Q 504.03629300576347 598.8698375004349 509.3733329447178 585.944576920102 514.7103728836721 573.019316339769 523.0927821795709 560.4066414031875 531.4751914754697 547.793966466606 543.4511781848739 533.5494615127295 555.4271648942782 519.304956558853 571.7012226433242 501.1343103213578 587.9752803923701 482.96366408386274 621.1293557460264 450.8696462640247 654.2834310996826 418.7756284441866 689.2034011469908 387.9471559123615 724.123371194299 357.1186833805364 763.3731731116927 324.30927887548273 802.6229750290864 291.499874370429 846.220074480887 256.76570842942755 889.8171739326876 222.03154248842614 935.9748850663517 186.47591722536737 982.1325962000158 150.92029196230857 1029.0914383073923 117.62172864155406 1076.0502804147686 84.32316532079955 1076.0531830510217 84.32723652489435 1076.056085687275 84.33130772898915 1076.0589883235284 84.33537893308394 1076.0618909597815 84.33945013717874 1029.2840490774233 117.87209715840217 982.5062071950654 151.4047441796256 936.395301817957 187.01085583249147 890.2843964408487 222.61696748535732 846.7550291945086 257.417990664374 803.2256619481683 292.2190138433906 764.072261260102 325.1176478181127 724.9188605720357 358.01628179283483 690.1449332032339 388.95477918182894 655.3710058344321 419.893276570823 622.4436114233903 452.10914826768726 589.5162170123484 484.3250199645515 573.5287174853123 502.68753446373637 557.5412179582762 521.0500489629213 545.9357795454193 535.3738090322763 534.3303411325626 549.6975691016314 526.0511050350898 562.1042859878648 517.771868937617 574.5110028740982 510.91307605186427 586.6947892298003 504.05428316611153 598.8785755855026 504.0452880859375 598.8742065429688 Z" fill="#a855f7"></path></svg>